# xmcd
#
# Track frame offsets:
#	150
#	19047
#	46800
#	69525
#
# Disc length: 1311 seconds
#
# Revision: 0
# Processed by: cddbd v1.5.1PL0 Copyright (c) Steve Scherf et al.
# Submitted via: audiograbber 1.83.01
#
DISCID=2a051d04
DTITLE=Sound Of Seduction - Welcome (Into My World)
DYEAR=1995
DGENRE=Dance
TTITLE0=Welcome (Into My World) - Radio Version
TTITLE1=Welcome (Into My World) - Apocalypse Version
TTITLE2=Welcome (Into My World) - Disco Mix
TTITLE3=Welcome (Into My World) - Star Wars Dub
EXTD=
EXTT0=
EXTT1=
EXTT2=
EXTT3=
PLAYORDER=
